<mxfile host="app.diagrams.net" modified="2020-11-10T13:25:14.081Z" agent="5.0 (Macintosh; Intel Mac OS X 10_15_7) AppleWebKit/537.36 (KHTML, like Gecko) Chrome/86.0.4240.111 Safari/537.36" etag="4_TruCC5_lemLRL77ZVa" version="13.9.3" type="github">
  <diagram id="qhw_-npcmmgvjcjWAInv" name="Page-1">
    <mxGraphModel dx="946" dy="556" grid="1" gridSize="10" guides="1" tooltips="1" connect="1" arrows="1" fold="1" page="1" pageScale="1" pageWidth="827" pageHeight="1169" math="0" shadow="0">
      <root>
        <mxCell id="0" />
        <mxCell id="1" parent="0" />
        <mxCell id="ChwCsDeBSGXIapC0tbey-5" style="edgeStyle=orthogonalEdgeStyle;rounded=0;orthogonalLoop=1;jettySize=auto;html=1;entryX=0.5;entryY=0;entryDx=0;entryDy=0;" edge="1" parent="1" source="ChwCsDeBSGXIapC0tbey-1" target="ChwCsDeBSGXIapC0tbey-3">
          <mxGeometry relative="1" as="geometry" />
        </mxCell>
        <mxCell id="ChwCsDeBSGXIapC0tbey-10" style="edgeStyle=orthogonalEdgeStyle;rounded=0;orthogonalLoop=1;jettySize=auto;html=1;entryX=0.5;entryY=0;entryDx=0;entryDy=0;" edge="1" parent="1" source="ChwCsDeBSGXIapC0tbey-1" target="ChwCsDeBSGXIapC0tbey-6">
          <mxGeometry relative="1" as="geometry" />
        </mxCell>
        <mxCell id="ChwCsDeBSGXIapC0tbey-11" style="edgeStyle=orthogonalEdgeStyle;rounded=0;orthogonalLoop=1;jettySize=auto;html=1;entryX=0.5;entryY=0;entryDx=0;entryDy=0;" edge="1" parent="1" source="ChwCsDeBSGXIapC0tbey-1" target="ChwCsDeBSGXIapC0tbey-8">
          <mxGeometry relative="1" as="geometry" />
        </mxCell>
        <mxCell id="ChwCsDeBSGXIapC0tbey-12" style="edgeStyle=orthogonalEdgeStyle;rounded=0;orthogonalLoop=1;jettySize=auto;html=1;entryX=0.5;entryY=0;entryDx=0;entryDy=0;" edge="1" parent="1" source="ChwCsDeBSGXIapC0tbey-1" target="ChwCsDeBSGXIapC0tbey-7">
          <mxGeometry relative="1" as="geometry" />
        </mxCell>
        <mxCell id="ChwCsDeBSGXIapC0tbey-14" style="edgeStyle=orthogonalEdgeStyle;rounded=0;orthogonalLoop=1;jettySize=auto;html=1;entryX=0.5;entryY=0;entryDx=0;entryDy=0;" edge="1" parent="1" source="ChwCsDeBSGXIapC0tbey-1" target="ChwCsDeBSGXIapC0tbey-13">
          <mxGeometry relative="1" as="geometry" />
        </mxCell>
        <mxCell id="ChwCsDeBSGXIapC0tbey-1" value="Darts Homepage" style="rounded=0;whiteSpace=wrap;html=1;" vertex="1" parent="1">
          <mxGeometry x="370" y="70" width="120" height="60" as="geometry" />
        </mxCell>
        <mxCell id="ChwCsDeBSGXIapC0tbey-3" value="501 Gametype" style="rounded=0;whiteSpace=wrap;html=1;" vertex="1" parent="1">
          <mxGeometry x="150" y="190" width="120" height="60" as="geometry" />
        </mxCell>
        <mxCell id="ChwCsDeBSGXIapC0tbey-6" value="301 Gametype" style="rounded=0;whiteSpace=wrap;html=1;" vertex="1" parent="1">
          <mxGeometry x="290" y="190" width="120" height="60" as="geometry" />
        </mxCell>
        <mxCell id="ChwCsDeBSGXIapC0tbey-7" value="27 Gametype" style="rounded=0;whiteSpace=wrap;html=1;" vertex="1" parent="1">
          <mxGeometry x="580" y="190" width="120" height="60" as="geometry" />
        </mxCell>
        <mxCell id="ChwCsDeBSGXIapC0tbey-8" value="121 Gametype" style="rounded=0;whiteSpace=wrap;html=1;" vertex="1" parent="1">
          <mxGeometry x="440" y="190" width="120" height="60" as="geometry" />
        </mxCell>
        <mxCell id="ChwCsDeBSGXIapC0tbey-16" value="" style="edgeStyle=orthogonalEdgeStyle;rounded=0;orthogonalLoop=1;jettySize=auto;html=1;" edge="1" parent="1" source="ChwCsDeBSGXIapC0tbey-13" target="ChwCsDeBSGXIapC0tbey-15">
          <mxGeometry relative="1" as="geometry" />
        </mxCell>
        <mxCell id="ChwCsDeBSGXIapC0tbey-13" value="Login" style="rounded=0;whiteSpace=wrap;html=1;" vertex="1" parent="1">
          <mxGeometry x="370" y="290" width="120" height="60" as="geometry" />
        </mxCell>
        <mxCell id="ChwCsDeBSGXIapC0tbey-15" value="Stats" style="rounded=0;whiteSpace=wrap;html=1;" vertex="1" parent="1">
          <mxGeometry x="370" y="430" width="120" height="60" as="geometry" />
        </mxCell>
      </root>
    </mxGraphModel>
  </diagram>
</mxfile>
